<svg height="203" viewBox="0 0 485 203" fill="none" xmlns="http://www.w3.org/2000/svg">
<path d="M290.658 68.9504C280.024 68.9504 272.105 74.1714 272.105 86.7375C272.105 96.2049 277.324 102.779 290.084 102.779C300.9 102.779 308.247 96.4044 308.247 86.3443C308.247 74.9447 301.674 68.9504 290.658 68.9504V68.9504ZM269.398 157.679C266.88 160.766 264.372 164.05 264.372 167.92C264.372 175.647 274.225 177.972 287.76 177.972C298.97 177.972 314.242 177.186 314.242 166.763C314.242 160.567 306.895 160.185 297.612 159.604L269.398 157.679V157.679ZM326.61 69.5337C330.083 73.9795 333.762 80.1676 333.762 89.0574C333.762 110.511 316.945 123.074 292.596 123.074C286.404 123.074 280.799 122.302 277.324 121.337L270.942 131.578L289.883 132.737C323.325 134.868 343.033 135.837 343.033 161.534C343.033 183.767 323.517 196.324 289.883 196.324C254.899 196.324 241.562 187.432 241.562 172.164C241.562 163.466 245.428 158.836 252.194 152.447C245.814 149.751 243.69 144.921 243.69 139.698C243.69 135.442 245.814 131.58 249.298 127.903C252.775 124.236 256.639 120.56 261.279 116.308C251.81 111.668 244.655 101.618 244.655 87.3113C244.655 65.0878 259.347 49.8238 288.914 49.8238C297.228 49.8238 302.255 50.5876 306.701 51.756H344.395V68.179L326.61 69.5337V69.5337Z" fill="white"/>
<path d="M378.4 34.4096C367.381 34.4096 361.003 28.0259 361.003 17.0044C361.003 5.99808 367.379 0 378.4 0C389.61 0 395.99 5.99808 395.99 17.0044C395.99 28.0259 389.612 34.4096 378.4 34.4096ZM353.462 150.566V135.304L363.323 133.955C366.03 133.565 366.414 132.988 366.414 130.083V73.2556C366.414 71.1353 365.836 69.775 363.896 69.2012L353.462 65.5248L355.586 49.8732H395.6V130.083C395.6 133.179 395.787 133.565 398.695 133.957L408.552 135.305V150.566H353.462V150.566Z" fill="white"/>
<path d="M484.988 143.072C476.674 147.129 464.498 150.801 453.476 150.801C430.476 150.801 421.781 141.533 421.781 119.68V69.0454C421.781 67.8864 421.781 67.1132 420.229 67.1132H406.702V49.9055C423.716 47.9676 430.476 39.4635 432.602 18.3951H450.966V45.8491C450.966 47.1981 450.966 47.7814 452.515 47.7814H479.765V67.1094H450.966V113.302C450.966 124.706 453.676 129.148 464.108 129.148C469.527 129.148 475.126 127.799 479.764 126.059L484.988 143.071" fill="white"/>
<path d="M198.596 92.3499L110.219 3.97841C109.009 2.76771 107.572 1.80731 105.99 1.15206C104.409 0.496816 102.714 0.159561 101.002 0.159561C99.2898 0.159561 97.5947 0.496816 96.0131 1.15206C94.4316 1.80731 92.9946 2.76771 91.7842 3.97841L73.4328 22.3317L96.7127 45.6097C99.4491 44.6791 102.391 44.5334 105.206 45.1892C108.021 45.845 110.596 47.2761 112.64 49.3203C114.694 51.3773 116.128 53.9708 116.779 56.8043C117.429 59.6378 117.27 62.5972 116.318 65.3443L138.751 87.7806C144.179 85.911 150.443 87.1213 154.776 91.4626C156.217 92.9026 157.36 94.6123 158.14 96.4941C158.92 98.3759 159.321 100.393 159.321 102.43C159.321 104.467 158.92 106.484 158.14 108.366C157.36 110.248 156.217 111.957 154.776 113.397C152.241 115.935 148.906 117.515 145.336 117.87C141.767 118.224 138.186 117.331 135.201 115.342C132.217 113.353 130.014 110.391 128.967 106.96C127.921 103.529 128.096 99.8422 129.462 96.5259L108.54 75.6039L108.538 130.664C110.055 131.414 111.44 132.405 112.64 133.597C114.081 135.038 115.223 136.748 116.003 138.63C116.783 140.512 117.184 142.529 117.184 144.567C117.184 146.604 116.783 148.621 116.003 150.503C115.223 152.385 114.081 154.096 112.64 155.536C106.579 161.597 96.7564 161.597 90.7051 155.536C88.8973 153.729 87.5638 151.504 86.8233 149.058C86.0828 146.612 85.9582 144.021 86.4606 141.515C86.963 139.009 88.0768 136.666 89.7029 134.695C91.3291 132.723 93.4172 131.184 95.7817 130.214V74.6406C93.8796 73.8639 92.1532 72.7125 90.7051 71.255C86.1149 66.6704 85.011 59.9352 87.3631 54.2981L64.4157 31.3469L3.81934 91.9395C2.60846 93.1503 1.64794 94.5878 0.992617 96.1698C0.337292 97.7519 0 99.4475 0 101.16C0 102.872 0.337292 104.568 0.992617 106.15C1.64794 107.732 2.60846 109.169 3.81934 110.38L92.1965 198.754C94.6414 201.198 97.957 202.571 101.414 202.571C104.871 202.571 108.187 201.198 110.632 198.754L198.596 110.793C201.041 108.346 202.414 105.03 202.414 101.571C202.414 98.1129 201.041 94.7961 198.596 92.3499" fill="#DE4C36"/>
</svg>
